#!OML:ASF E:\emotionWalksFemale\Project 1\Capture day 1\Session 1\Female1.ASF
:FULLY-SPECIFIED
:DEGREES
283
root 8.6342 17.7191 9.60034 -158.638 -11.9746 -183.786
lowerback 3.64443 0.44491 0.813253
upperback -6.01372 0.411325 -0.242926
thorax -8.34705 0.0411028 -0.741213
lowerneck -10.5744 -5.51519 -8.16289
upperneck 6.02245 -6.64627 4.92619
head 3.94983 -3.23309 2.37042
rclavicle -1.71949e-014 1.59028e-015
rhumerus 51.6279 -27.0514 -17.8489
rradius 60.6051
rwrist -14.6759
rhand -5.95718 -39.6596
rfingers 7.12502
rthumb 19.8735 -68.6635
lclavicle -1.71949e-014 1.59028e-015
lhumerus 49.879 12.2876 25.4759
lradius 75.8854
lwrist 22.5456
lhand -15.0688 -59.1301
lfingers 7.12502
lthumb 11.0984 -29.4435
rfemur 5.52434 -7.84156 21.9508
rtibia 28.512
rfoot 30.5919 -26.075
rtoes 34.4262
lfemur 1.37463 -14.501 -22.9218
ltibia 22.004
lfoot 8.38097 37.5132
ltoes 49.722
284
root 8.62656 17.85 9.34229 -159.045 -12.5523 -183.973
lowerback 4.40516 0.300985 0.838638
upperback -5.83807 0.266065 -0.0980585
thorax -8.60784 -0.0144839 -0.591724
lowerneck -10.6872 -5.57577 -8.23286
upperneck 5.78027 -6.70311 4.9247
head 3.89978 -3.26086 2.37634
rclavicle -7.05686e-015 1.82882e-014
rhumerus 50.7213 -27.265 -18.5876
rradius 60.178
rwrist -14.384
rhand -5.7781 -40.1142
rfingers 7.12502
rthumb 20.0457 -69.1001
lclavicle -7.05686e-015 1.82882e-014
lhumerus 46.8241 11.0941 24.5638
lradius 76.4764
lwrist 22.1253
lhand -14.9833 -59.1662
lfingers 7.12502
lthumb 11.1808 -29.4841
rfemur 4.70885 -8.949 21.6221
rtibia 29.6806
rfoot 32.4076 -23.9843
rtoes 33.4287
lfemur 0.85114 -15.3438 -22.9546
ltibia 21.4752
lfoot 5.4907 38.82
ltoes 51.319
285
root 8.62184 17.9727 9.09634 -159.541 -13.1662 -184.147
lowerback 5.48335 0.10999 0.914331
upperback -5.6975 0.0635899 0.00457861
thorax -9.09588 -0.103691 -0.504599
lowerneck -10.5069 -5.56412 -8.23187
upperneck 5.3386 -6.70881 5.11626
head 3.74291 -3.25573 2.44365
rclavicle 1.77912e-014 -7.95139e-015
rhumerus 49.6281 -27.0333 -19.291
rradius 59.6077
rwrist -14.0059
rhand -6.10762 -40.3824
rfingers 7.12502
rthumb 19.7289 -69.4012
lclavicle 1.77912e-014 -7.95139e-015
lhumerus 43.872 9.44324 23.8409
lradius 76.7407
lwrist 21.2091
lhand -14.513 -58.7257
lfingers 7.12502
lthumb 11.6344 -29.0687
rfemur 3.8776 -10.0687 21.3185
rtibia 30.7029
rfoot 31.4268 -21.6416
rtoes 27.1127
lfemur 0.20717 -15.6095 -22.8559
ltibia 20.9496
lfoot 2.27924 39.8808
ltoes 53.2717
286
root 8.61619 18.0871 8.8581 -159.931 -13.6608 -184.178
lowerback 6.4839 -0.0216267 1.1374
upperback -5.52066 -0.0412554 0.126781
thorax -9.49836 -0.1541 -0.487305
lowerneck -10.2208 -5.4904 -8.21648
upperneck 4.70631 -6.64266 5.37735
head 3.50869 -3.2141 2.53986
rclavicle 1.8487e-014 -5.56597e-015
rhumerus 48.1595 -26.577 -19.3728
rradius 58.8694
rwrist -13.7052
rhand -6.28284 -40.3899
rfingers 7.12502
rthumb 19.5604 -69.4259
lclavicle 1.8487e-014 -5.56597e-015
lhumerus 41.1038 7.80697 22.9027
lradius 76.9121
lwrist 20.8417
lhand -13.8565 -57.6447
lfingers 7.12502
lthumb 12.2674 -28.0245
rfemur 2.74123 -10.9528 21.1709
rtibia 31.6001
rfoot 30.7911 -20.3688
rtoes 24.4066
lfemur -0.762809 -15.4422 -22.6132
ltibia 20.382
lfoot 1.42997 40.4023
ltoes 52.7806
287
root 8.60829 18.1922 8.62291 -160.201 -14.0664 -184.124
lowerback 7.28168 -0.117105 1.42982
upperback -5.25008 -0.0823157 0.318259
thorax -9.67691 -0.174088 -0.442767
lowerneck -10.3749 -5.51486 -8.36874
upperneck 4.40434 -6.65105 5.54773
head 3.45321 -3.21222 2.61484
rclavicle 1.55052e-014 2.38542e-015
rhumerus 46.5457 -25.9531 -18.853
rradius 57.9253
rwrist -13.316
rhand -6.16291 -40.2189
rfingers 7.12502
rthumb 19.6757 -69.2432
lclavicle 1.55052e-014 2.38542e-015
lhumerus 39.7352 5.7988 22.7899
lradius 75.7612
lwrist 20.1372
lhand -13.3729 -57.3077
lfingers 7.12502
lthumb 12.7338 -27.716
rfemur 1.29029 -11.62 21.1365
rtibia 32.4043
rfoot 31.202 -19.7496
rtoes 26.7512
lfemur -1.91401 -15.4217 -22.3408
ltibia 19.7147
lfoot -0.313592 40.5282
ltoes 50.5428
288
root 8.60033 18.2943 8.39215 -160.446 -14.4583 -184.089
lowerback 8.13023 -0.215598 1.73478
upperback -4.99399 -0.126132 0.476555
thorax -9.90201 -0.199597 -0.438256
lowerneck -10.4733 -5.56171 -8.31036
upperneck 4.19601 -6.70806 5.50563
head 3.40592 -3.24065 2.58854
rclavicle 2.48481e-014 5.56597e-015
rhumerus 45.1858 -24.9452 -18.6514
rradius 56.7755
rwrist -12.5787
rhand -6.55007 -40.5741
rfingers 7.12502
rthumb 19.3035 -69.636
lclavicle 2.48481e-014 5.56597e-015
lhumerus 37.2091 3.8594 22.5643
lradius 75.8246
lwrist 19.9922
lhand -12.9697 -57.2234
lfingers 7.12502
lthumb 13.1224 -27.6562
rfemur -0.3245 -12.2391 21.0952
rtibia 33.1197
rfoot 29.1468 -19.0442
rtoes 22.2994
lfemur -3.10815 -15.6818 -22.0855
ltibia 18.9531
lfoot -0.395493 41.1804
ltoes 49.6183
